<svg xmlns="http://www.w3.org/2000/svg" xmlns:xlink="http://www.w3.org/1999/xlink">
  <symbol id="logo" viewBox="0 0 63 23">
    <path fill="#080808" d="M0 18v4.5h4.7V18"/>
    <path fill="#e4042f" d="M61.7 12.4c-.8-1-5.1-3-6.1-3.5-.6-.3-2.3-1.7-2.3-2.5 0-1.9 2.9-2.3 5.8-.8.8.4 1.5.7 1.6.7s1.6-2.8 2-3.7c.2-.5-2.5-1.9-4.5-2.4-1.5-.3-2.5-.3-3.9-.1-4.1 1-5.9 3-5.9 6.5 0 1.9.5 3.4 1.6 4.4 1.1.9 2 1.2 3.7 2.1 4.5 2.3 5.2 3.1 3.9 4.5-.9.9-3.1.9-5 0-.8-.4-1.6-.8-1.6-1-.4-.6-.8-.3-1.9 1.5-1.4 2.2-1.3 2.5 1.6 3.9 2.6 1.2 6.5 1.4 8.8.2 3.4-1.8 4.7-6.9 2.2-9.8zM22.9.3l-2.7.1L19 2.9c-.6 1.4-1.5 3.2-1.7 4.1-.4.9-.8 1.5-1 1.5-.3-.1-1.2-1.7-2-3.7-.9-2-1.7-3.8-2-4.1C11.9.2 6.8 0 6.8.5c0 .2.6 1.5 1.5 2.8C9 4.8 9.7 6 9.7 6.1c0 .1.5 1 1.1 2.1 3 5.3 2.8 4.7 2.8 9.7v4.7h5.2v-4.7l.1-3.9c.2-1.4 1-2.6 1.6-3.7.9-1.6 1.6-2.9 1.6-3s.8-1.5 1.8-3.3c1-1.7 1.8-3.3 1.8-3.5-.2-.2-1.1-.3-2.8-.2zm20.6 18.1l-4.2-.1c-2.8-.1-4.3-.2-4.4-.5-.3-.5-.3-3.3 0-3.8.2-.3 1.4-.4 3.3-.5l2.5-.1h.9l-.1-4.2h-3c-1.9 0-3.1-.1-3.4-.4-.5-.5-.5-3.3 0-3.9.3-.3 1.7-.4 4.3-.4h3.9V.3H29.9l-.1 11.1-.1 11h13.9l-.1-2.1v-1.9z"/>
  </symbol>

  <symbol id="icon-instagram" viewBox="0 0 130 130" fill="currentColor">
    <path d="M65 11.73c17.37 0 19.43.07 26.29.38a36 36 0 0 1 12.1 2.24 21.53 21.53 0 0 1 12.33 12.35A36.09 36.09 0 0 1 118 38.78c.31 6.86.38 8.92.38 26.29s-.07 19.43-.38 26.29a36.09 36.09 0 0 1-2.24 12.08 21.57 21.57 0 0 1-12.35 12.34A36.09 36.09 0 0 1 91.29 118c-6.86.31-8.92.38-26.29.38s-19.43-.07-26.29-.38a36.09 36.09 0 0 1-12.08-2.24 21.53 21.53 0 0 1-12.35-12.35A36.09 36.09 0 0 1 12 91.35c-.31-6.86-.38-8.92-.38-26.29s.07-19.43.38-26.29a36.09 36.09 0 0 1 2.24-12.08 21.53 21.53 0 0 1 12.39-12.35 36.09 36.09 0 0 1 12.08-2.24c6.86-.31 8.92-.38 26.29-.38M65 0C47.33 0 45.11.07 38.18.39a47.9 47.9 0 0 0-15.79 3 33.28 33.28 0 0 0-19 19 47.86 47.86 0 0 0-3 15.79C.07 45.12 0 47.33 0 65s.07 19.89.39 26.82a47.86 47.86 0 0 0 3 15.79 33.28 33.28 0 0 0 19 19 47.9 47.9 0 0 0 15.79 3c6.94.32 9.15.39 26.82.39s19.89-.07 26.82-.39a47.9 47.9 0 0 0 15.79-3 33.28 33.28 0 0 0 19-19 47.86 47.86 0 0 0 3-15.79c.32-6.94.39-9.16.39-26.82s-.07-19.89-.39-26.82a47.86 47.86 0 0 0-3-15.79 33.28 33.28 0 0 0-19-19 47.9 47.9 0 0 0-15.79-3C84.88.07 82.67 0 65 0z"/>
    <path d="M65 31.66a33.41 33.41 0 1 0 33.37 33.43A33.41 33.41 0 0 0 65 31.66zm0 55.1a21.69 21.69 0 1 1 21.67-21.69A21.69 21.69 0 0 1 65 86.75z"/>
    <circle cx="99.71" cy="30.34" r="7.81"/>
  </symbol>

  <symbol id="icon-ok" viewBox="0 0 80 138" fill="currentColor">
    <path d="M40 71.34A35.67 35.67 0 1 0 4.36 35.67 35.7 35.7 0 0 0 40 71.34zm0-50.43a14.77 14.77 0 1 1-14.74 14.77A14.77 14.77 0 0 1 40 20.91zm14.46 79.53a67 67 0 0 0 20.69-8.58A10.45 10.45 0 1 0 64 74.16a45.27 45.27 0 0 1-48 0 10.45 10.45 0 0 0-11.11 17.7 67.09 67.09 0 0 0 20.71 8.58l-20 19.94a10.45 10.45 0 0 0 14.79 14.78L40 115.56l19.6 19.6a10.45 10.45 0 0 0 14.8-14.78z"/>
  </symbol>

  <symbol id="icon-vk" viewBox="0 0 161 92" fill="currentColor">
    <path d="M78.76 91.38h9.62s2.9-.32 4.39-1.92a6.35 6.35 0 0 0 1.32-4.22s-.19-12.9 5.8-14.81 13.49 12.47 21.52 18c6.08 4.17 10.69 3.26 10.69 3.26l21.49-.3s11.24-.69 5.91-9.53c-.44-.72-3.11-6.54-16-18.49-13.5-12.51-11.67-10.48 4.56-32.12C158 18.07 161.88 10 160.69 6.55c-1.18-3.28-8.45-2.42-8.45-2.42L128 4.28a5.6 5.6 0 0 0-3.12.55 6.8 6.8 0 0 0-2.13 2.6 141.65 141.65 0 0 1-8.91 18.9C103.08 44.62 98.77 45.55 97 44.45c-4.1-2.65-3.07-10.64-3.07-16.31 0-17.73 2.69-25.12-5.24-27C86.07.51 84.13.09 77.41 0c-8.63-.07-15.94 0-20.08 2.07-2.75 1.35-4.88 4.35-3.58 4.52 1.6.21 5.22 1 7.14 3.59 2.48 3.37 2.39 11 2.39 11S64.7 42 60 44.59c-3.26 1.78-7.74-1.85-17.34-18.45A153.53 153.53 0 0 1 34 8.24a7.31 7.31 0 0 0-2-2.7A10.23 10.23 0 0 0 28.25 4l-23 .15S1.8 4.29.53 5.79C-.6 7.13.44 9.89.44 9.89s18 42.11 38.38 63.34c18.69 19.46 39.91 18.18 39.91 18.18z"/>
  </symbol>

  <symbol id="icon-youtube" viewBox="0 0 115 139" fill="currentColor">
    <path d="M95.57 90.92q-3.46 0-3.47 5.3v3.53H99v-3.5c0-3.57-1.14-5.33-3.43-5.33z"/>
    <path d="M112.48 71.51a14.46 14.46 0 0 0-12.37-11.26c-14.2-1.59-28.56-1.59-42.87-1.59s-28.68 0-42.87 1.59A14.46 14.46 0 0 0 2 71.5c-2 8.67-2 18.13-2 27.06S0 117 2 125.62a14.44 14.44 0 0 0 12.37 11.26c14.19 1.59 28.56 1.59 42.87 1.59s28.67 0 42.87-1.59a14.46 14.46 0 0 0 12.37-11.25c2-8.67 2-18.13 2-27.06s0-18.39-2-27.06zm-79.85 7.8h-8.26v44h-7.69v-44H8.54V72.1h24.12zm20.9 44h-6.92v-4.17c-2.75 3.16-5.36 4.69-7.9 4.69-2.23 0-3.76-.91-4.46-2.84a19.42 19.42 0 0 1-.61-5.68V85.16h6.92v28.09a20.1 20.1 0 0 0 .06 2.69c.17 1.07.69 1.62 1.62 1.62 1.39 0 2.84-1.07 4.37-3.24V85.16h6.92zm26.28-11.46a30.57 30.57 0 0 1-.7 7.69c-.92 2.84-2.77 4.29-5.53 4.29-2.46 0-4.84-1.37-7.15-4.23v3.7h-6.92V72.1h6.92v16.73c2.23-2.75 4.61-4.14 7.15-4.14 2.76 0 4.61 1.45 5.53 4.31a29.6 29.6 0 0 1 .7 7.68zm26.11-6.37H92.09v6.77c0 3.53 1.16 5.3 3.53 5.3 1.7 0 2.7-.93 3.09-2.78a45.93 45.93 0 0 0 .15-4.69h7.06v1c0 2.23-.09 3.76-.15 4.46a9.85 9.85 0 0 1-1.62 4.14 9.56 9.56 0 0 1-8.37 4.14 9.88 9.88 0 0 1-8.37-3.91c-1.47-1.91-2.22-4.92-2.22-9V97.6c0-4.08.67-7.07 2.14-9a9.84 9.84 0 0 1 8.29-3.91 9.62 9.62 0 0 1 8.16 3.91c1.45 1.93 2.14 4.92 2.14 9z"/>
    <path d="M69.9 90.92a5 5 0 0 0-3.45 1.68v23.27a5 5 0 0 0 3.45 1.7c2 0 3-1.7 3-5.15V96.13c.01-3.45-1.01-5.21-3-5.21zM45.24 0h-7.87l-5.28 20.32L26.59 0h-8.15c1.63 4.8 3.33 9.62 5 14.42a127.09 127.09 0 0 1 4.73 16.37v21h7.75v-21zM66 39.25v-13.5c0-4.12-.71-7.13-2.17-9.09a10.37 10.37 0 0 0-14.56-1.73 10.49 10.49 0 0 0-1.73 1.73c-1.49 2-2.19 5-2.19 9.09v13.5c0 4.1.7 7.14 2.19 9.07a10.37 10.37 0 0 0 14.56 1.73 10.89 10.89 0 0 0 1.73-1.73C65.25 46.4 66 43.36 66 39.25zm-7 1.31c0 3.57-1.08 5.35-3.33 5.35s-3.34-1.79-3.34-5.35V24.35c0-3.57 1.08-5.34 3.34-5.34S59 20.78 59 24.35zm32.79 11.17V13.18h-7v29.47c-1.55 2.19-3 3.27-4.41 3.27-.94 0-1.48-.55-1.64-1.64a16.46 16.46 0 0 1-.08-2.72V13.18h-7v30.5a19.43 19.43 0 0 0 .62 5.73c.7 2 2.25 2.87 4.5 2.87 2.55 0 5.2-1.55 8-4.74v4.21z"/>
  </symbol>

  <symbol id="icon-arrow" viewBox="0 0 13 9" fill="#f5112c">
    <path fill="#f5112c" d="M5.7 8.4c-.6-1-.4-1.3 1.3-2.1l1.6-.8H0V3.1L3.6 3c3.3-.1 3.5-.1 2.7-.6-1.1-.5-1.2-.6-.3-1.6l.6-.8 3.2 1.6c3 1.5 3.2 1.7 3.2 2.6 0 .6-.1 1.1-.3 1.3C12.4 6 6.9 9 6.4 9c-.2 0-.5-.3-.7-.6z"/>
  </symbol>

  <symbol id="icon-wave" viewBox="0 0 145 19" fill="#2429ff">
    <path d="M3.8 7.8c.9 0 1.8.3 2.6.9.8.7 1.5 1.5 2.2 2.3 1.9 2.5 3.7 5.1 6.6 6.6 3.3 1.7 7.1 1.9 10.5.5 3.1-1.3 5.2-3.8 7.2-6.4 1.4-1.8 2.7-3.6 4.9-3.9.8 0 1.6.1 2.4.5.9.5 1.7 1.4 2.6 2.5 1.5 1.8 3.5 4.7 5.9 6.3 3 1.9 6.7 2.5 10.1 1.5 3.3-1 5.6-3.3 7.7-5.9.8-1 1.4-1.9 2-2.6L70 8.6c.4-.3.5-.3.8-.5 1-.5 2.2-.5 3.2-.1.4.2.9.5 1.1.7.1.1.1 0 .2.2.4.3.7.7 1 1.1 1.5 1.7 3.2 4.4 5.3 6.1 5.8 4.8 13.6 3.3 18.2-2.3 1.7-2.1 3-4.5 5-5.5 1.7-.9 3.8-.5 5.1.9 2 2 3.4 4.7 5.9 6.8 3.1 2.8 7.5 3.7 11.6 2.6 3.6-1 6-3.7 8.2-6.6.8-1.1 1.7-2.2 2.7-3.1.8-.7 1.8-1.1 2.8-1.1 5.1-.1 5.1-7.9 0-7.8-3.4.1-6.7 1.5-9.1 3.9-2.1 2.2-3.2 4.5-5.4 6.3-1.5 1.2-3.6 1.2-5.2.2-.3-.2-1.8-1.7-2-2-1-1.3-1.9-2.6-3-3.8-4.8-5.4-12.7-6.1-18.1-1.2-2.1 1.9-3.5 4.4-5.2 6.2-1.4 1.4-3.3 2.2-5 1.4-2.2-1-3.4-3.3-5.1-5.4-1.9-2.4-4.4-4.5-7.5-5.2-3.6-.9-7.5-.1-10.4 2.1C62.9 4.2 61 7 59.5 8.8c-1.6 1.9-3 2.9-5.3 2.3-1.8-.4-3.3-2.6-4.7-4.4-2-2.6-4.2-5-7.5-6.1-3.4-1.1-7.1-.7-10.2 1.1C29 3.4 27 6.6 25.3 8.6c-1.8 2.1-3.7 3.3-5.9 2.3-2.4-1.1-3.7-3.8-5.7-6C11.1 1.9 7.8.1 3.8 0c-5.1-.1-5.1 7.6 0 7.8z"/>
  </symbol>

  <view id="icon-arrow-view" viewBox="0 0 13 9"></view>
  <view id="icon-wave-view" viewBox="0 10 145 19"></view>

  <use id="arrow" xlink:href="#icon-arrow" width="13" height="9" x="0" y="0"></use>
  <use id="wave" xlink:href="#icon-wave" width="145" height="19" x="0" y="10"></use>
</svg>
